# xmcd
#
# Track frame offsets:
#	150
#	13281
#	25286
#	40817
#	58147
#	72853
#	95958
#	110214
#	127395
#	141126
#	158081
#	177286
#	193642
#	205347
#	218402
#
# Disc length: 3138 seconds
#
# Revision: 0
# Processed by: cddbd v1.5.2PL0 Copyright (c) Steve Scherf et al.
# Submitted via: dBpowerAMP V4.0
#
DISCID=e90c400f
DTITLE=DANIEL O'DONNELL - UNTIL THE NEXT TIME
DYEAR=1900
DGENRE=Easy Listening
TTITLE0=CAN YOU FEEL THE LOVE
TTITLE1=MY LOVE FOR YOU
TTITLE2=CRUSH ON YOU
TTITLE3=( MI CARINO ) MARIA
TTITLE4=I FORGOT TO REMEMBER TO FORGET
TTITLE5=MY LOVELY ISLAND HOME
TTITLE6=TONIGHT I'VE HELD MY FUTURE
TTITLE7=DON'T BREAK MY HEART
TTITLE8=BEYOND THE RAINBOW'S END
TTITLE9=WHEREVER YOU ARE
TTITLE10=SHOULD I
TTITLE11=TAKE THE HAND OF LOVE
TTITLE12=YOU GOTTA FEEL LOVE
TTITLE13=LOVE ME OR LEAVE ME
TTITLE14=UNTIL THE NEXT TIME
EXTD=
EXTT0=
EXTT1=
EXTT2=
EXTT3=
EXTT4=
EXTT5=
EXTT6=
EXTT7=
EXTT8=
EXTT9=
EXTT10=
EXTT11=
EXTT12=
EXTT13=
EXTT14=
PLAYORDER=
